<svg xmlns="http://www.w3.org/2000/svg" viewBox="0 0 900 470" fill="none" stroke="#0b294d" stroke-linecap="round" stroke-linejoin="round">
  <g opacity=".16" stroke-width="2">
    <path d="M640 244 751 139l116 105"/>
    <path d="m705 184 20 15 28-60 25 68 21-18 68 55"/>
    <path d="M627 255c75-16 160-15 255 4M654 269c72-10 149-7 229 8"/>
  </g>
  <g stroke-width="3" opacity=".55">
    <path d="M710 97q17-16 34 0M765 72q17-16 34 0M789 120q14-13 28 0"/>
  </g>
  <g stroke-width="4">
    <path d="M8 345c70-34 128-24 176 29 39 44 89 45 149 3 69-49 133-48 192 2 56 47 117 47 183-2 56-42 119-48 188-18"/>
    <path d="M4 373c70-35 132-31 185 13 51 42 103 43 157 4 68-50 132-49 192 3 51 44 105 44 163-1 57-44 121-47 193-9"/>
    <path d="M4 406c65-34 125-31 181 9 52 38 108 37 166-3 65-45 127-43 188 5 54 42 111 40 170-4 54-41 116-43 185-5"/>
  </g>
  <g stroke-width="5">
    <path d="M27 334c67-88 139-121 217-98 56 16 91 53 105 111-42-44-90-55-144-33-28 12-51 34-69 66-22-31-58-46-109-46Z"/>
    <path d="M78 326c40-49 84-68 133-58 36 7 65 28 87 62-36-23-72-25-107-7-32 17-55 43-69 79"/>
    <path d="M131 286c25-8 48-3 68 14M173 251c31-1 57 10 78 34M91 314c12-16 29-27 50-33"/>
    <path d="M305 354c39-78 93-111 162-100 56 9 97 47 123 112-40-42-82-55-127-39-31 11-56 34-76 68-16-27-43-41-82-41Z"/>
    <path d="M456 340c35-48 74-65 117-50 34 11 59 38 75 79-26-28-54-38-84-30-25 7-46 24-62 52"/>
    <path d="M590 361c38-63 88-88 148-74 48 11 82 42 103 94-38-34-77-42-116-24-24 11-44 30-59 56-17-31-42-48-76-52Z"/>
  </g>
  <g transform="rotate(12 493 234)">
    <path d="M491 58v47" stroke-width="9"/>
    <circle cx="491" cy="43" r="19" stroke-width="9"/>
    <path d="M467 98h48l-5 23h-38Z" stroke-width="8"/>
    <path d="m473 121-24 126h87l-26-126" stroke-width="9"/>
    <path d="m466 162 55 42M516 156l-57 52" stroke-width="7"/>
    <path d="m449 247-20 28h129l-22-28Z" stroke-width="10"/>
    <path d="m429 275-17 55c35 25 91 26 145 0l1-55Z" stroke-width="9"/>
  </g>
  <g fill="#0b294d" stroke="none">
    <circle cx="359" cy="267" r="4"/><circle cx="374" cy="247" r="3"/><circle cx="389" cy="277" r="5"/>
    <circle cx="596" cy="306" r="4"/><circle cx="611" cy="287" r="3"/><circle cx="625" cy="314" r="5"/>
  </g>
</svg>
