<svg xmlns="http://www.w3.org/2000/svg" viewBox="0 0 64 64" role="img" aria-label="macOS App Digest icon">
  <rect width="64" height="64" rx="14" fill="#f5f5f7"/>
  <path d="M40.8 12.8c-2.8.2-6 2-7.8 4.2-1.7 2-2.8 5-2.3 7.8 3 .2 6.1-1.6 7.9-3.8 1.8-2.2 3-5.1 2.2-8.2Z" fill="#1d1d1f"/>
  <path d="M47.5 43.8c-1.2 2.6-1.8 3.8-3.4 6.1-2.2 3.2-5.3 7.1-9.1 7.2-3.4.1-4.2-2.1-8.8-2.1s-5.6 2-8.8 2.1c-3.7.1-6.6-3.5-8.8-6.7-6-8.7-6.7-18.9-3-24.4 2.6-3.9 6.7-6.1 10.6-6.2 4.1-.1 6.7 2.2 10.1 2.2 3.3 0 5.3-2.2 10-2.1 3.6.1 7.4 2 10 5.4-8.8 4.8-7.4 17.3 1.2 18.5Z" fill="#1d1d1f"/>
</svg>
